<?xml version="1.0" encoding="UTF-8"?>
<svg version="1.1" xmlns="http://www.w3.org/2000/svg" width="500" height="120">
<path d="M0 0 C165 0 330 0 500 0 C500 39.6 500 79.2 500 120 C335 120 170 120 0 120 C0 80.4 0 40.8 0 0 Z " fill="#F0EEE6" transform="translate(0,0)"/>
<path d="M0 0 C1.08667969 0.02707031 2.17335938 0.05414062 3.29296875 0.08203125 C4.54013672 0.13423828 4.54013672 0.13423828 5.8125 0.1875 C5.4825 0.93 5.1525 1.6725 4.8125 2.4375 C3.58467129 5.32633312 3.58467129 5.32633312 3.8125 9.1875 C15.0325 9.1875 26.2525 9.1875 37.8125 9.1875 C37.04644386 3.62939396 37.04644386 3.62939396 35.8125 0.1875 C37.56111792 0.07896509 39.31169241 0.00166572 41.0625 -0.0625 C42.03703125 -0.10890625 43.0115625 -0.1553125 44.015625 -0.203125 C47.65607126 0.30531722 48.57408926 1.30729481 50.8125 4.1875 C51.32043457 7.22314453 51.32043457 7.22314453 51.33007812 10.8203125 C51.3370874 11.47771423 51.34409668 12.13511597 51.35131836 12.81243896 C51.36888431 14.97955917 51.35728235 17.14536716 51.34375 19.3125 C51.34644536 20.82177989 51.35032815 22.33105808 51.35534668 23.84033203 C51.36123976 27.00114499 51.3526855 30.16150534 51.33398438 33.32226562 C51.31119419 37.37118557 51.3243184 41.41904498 51.34827423 45.46792603 C51.36273778 48.58382133 51.35812383 51.69946574 51.34776306 54.81536865 C51.34509728 56.3080864 51.34836038 57.80082704 51.35768127 59.29351807 C51.36785695 61.38118704 51.35233569 63.46714574 51.33007812 65.5546875 C51.32530457 67.33528564 51.32530457 67.33528564 51.32043457 69.15185547 C50.8125 72.1875 50.8125 72.1875 49.10290527 74.56970215 C46.37366759 76.49746354 44.96554727 76.69338565 41.6484375 76.70507812 C40.10663818 76.72399109 40.10663818 76.72399109 38.53369141 76.74328613 C36.87732666 76.73114075 36.87732666 76.73114075 35.1875 76.71875 C33.47892822 76.72449036 33.47892822 76.72449036 31.73583984 76.73034668 C29.32844153 76.73306774 26.92101374 76.7256931 24.51367188 76.70898438 C20.82615318 76.68757925 17.14058301 76.70878132 13.453125 76.734375 C11.11457903 76.73173176 8.77603427 76.72660687 6.4375 76.71875 C5.33325684 76.72684692 4.22901367 76.73494385 3.09130859 76.74328613 C2.06344238 76.73067749 1.03557617 76.71806885 -0.0234375 76.70507812 C-0.92626465 76.70189575 -1.8290918 76.69871338 -2.75927734 76.69543457 C-6.08157672 76.00047742 -7.21970467 74.93882847 -9.1875 72.1875 C-9.68870544 69.10716248 -9.68870544 69.10716248 -9.68920898 65.44702148 C-9.69731346 64.44387909 -9.69731346 64.44387909 -9.70558167 63.42047119 C-9.71806106 61.21605802 -9.70158704 59.01295288 -9.68359375 56.80859375 C-9.68374874 55.27449983 -9.68523773 53.74040552 -9.68800354 52.20631409 C-9.6893871 48.99421845 -9.67683584 45.78256958 -9.65405273 42.57055664 C-9.62564377 38.45217382 -9.62841223 34.33453188 -9.64114285 30.21609402 C-9.64809494 27.04964359 -9.64031662 23.88336465 -9.62788582 20.71693611 C-9.6233684 19.19828003 -9.62303706 17.67960556 -9.62695122 16.1609478 C-9.62985958 14.03977527 -9.61337739 11.91962709 -9.59155273 9.79858398 C-9.58614975 8.59153305 -9.58074677 7.38448212 -9.57518005 6.14085388 C-9.1875 3.1875 -9.1875 3.1875 -7.84461975 1.2926178 C-5.27706556 -0.41966029 -3.03419142 -0.09787714 0 0 Z " fill="#DA5922" transform="translate(64.1875,28.8125)"/>
<path d="M0 0 C2.97 0 5.94 0 9 0 C9.33 4.95 9.66 9.9 10 15 C11.44375 13.246875 12.8875 11.49375 14.375 9.6875 C15.18710938 8.70136719 15.99921875 7.71523438 16.8359375 6.69921875 C19.05604957 4.01091621 19.05604957 4.01091621 21 1 C23.6015625 0.70703125 23.6015625 0.70703125 26.625 0.8125 C28.12933594 0.85310547 28.12933594 0.85310547 29.6640625 0.89453125 C30.43492187 0.92933594 31.20578125 0.96414062 32 1 C28.86151693 6.18531986 24.96879635 10.3068883 20.73046875 14.6328125 C18.82218098 16.77603978 18.82218098 16.77603978 18.9375 18.96484375 C20.47099228 21.90215801 22.53688134 24.03527299 24.8125 26.4375 C28.05663212 29.88289291 31.03323002 33.29153752 34 37 C34.33 24.79 34.66 12.58 35 0 C54.4 0 54.4 0 60 4 C62.7020964 8.05314459 62.52827017 11.2455685 62 16 C60.16669816 20.58325461 57.38253554 22.80873223 53 25 C49.91326551 25.31775208 47.11716265 25.18891895 44 25 C44 29.62 44 34.24 44 39 C26.22309181 40.7826426 26.22309181 40.7826426 20.95800781 37.87060547 C17.24141527 34.78602232 14.58480999 31.04790998 12 27 C11.34 26.01 10.68 25.02 10 24 C9.67 28.95 9.34 33.9 9 39 C6.03 39 3.06 39 0 39 C0 26.13 0 13.26 0 0 Z " fill="#DA5A23" transform="translate(215,41)"/>
<path d="M0 0 C2.05078125 0.03255208 4.1015625 0.06510417 6.15234375 0.09765625 C6.68190674 1.38397949 6.68190674 1.38397949 7.22216797 2.69628906 C8.5367298 5.88737602 9.8526303 9.07790409 11.16943359 12.26806641 C11.73832827 13.64707747 12.3066935 15.02630707 12.87451172 16.40576172 C13.69228164 18.39218357 14.51197254 20.37780337 15.33203125 22.36328125 C15.82429199 23.55727539 16.31655273 24.75126953 16.82373047 25.98144531 C17.85825201 28.40787547 18.9332828 30.76070123 20.15234375 33.09765625 C21.14234375 31.44765625 22.13234375 29.79765625 23.15234375 28.09765625 C23.97734375 28.42765625 24.80234375 28.75765625 25.65234375 29.09765625 C29.73974205 30.26548434 32.92157719 30.24354475 37.15234375 30.09765625 C37.15234375 28.77765625 37.15234375 27.45765625 37.15234375 26.09765625 C35.07559846 24.46329789 35.07559846 24.46329789 32.40234375 23.16015625 C25.24659483 19.09577195 25.24659483 19.09577195 23.15234375 15.09765625 C22.32625686 10.79145862 22.60807309 7.99181519 24.90234375 4.22265625 C29.2694137 0.0982013 32.8267422 -0.26692454 38.66796875 -0.171875 C41.95310673 0.18453148 44.3769335 1.34476557 47.15234375 3.09765625 C46.33984375 6.03515625 46.33984375 6.03515625 45.15234375 9.09765625 C42.05755496 10.12925251 40.62602982 10.07248487 37.46484375 9.66015625 C36.65660156 9.55832031 35.84835938 9.45648438 35.015625 9.3515625 C34.40074219 9.26777344 33.78585938 9.18398438 33.15234375 9.09765625 C33.15234375 10.41765625 33.15234375 11.73765625 33.15234375 13.09765625 C33.9 13.47277344 34.64765625 13.84789062 35.41796875 14.234375 C45.95959397 19.71215669 45.95959397 19.71215669 48.15234375 24.09765625 C48.8889308 29.25376562 48.81881071 31.0391499 46.02734375 35.47265625 C41.51821853 39.58968363 37.34812965 40.55124285 31.25390625 40.43359375 C27.50970234 39.83507788 24.37845057 38.01959223 21.15234375 36.09765625 C21.15234375 37.08765625 21.15234375 38.07765625 21.15234375 39.09765625 C18.18234375 39.09765625 15.21234375 39.09765625 12.15234375 39.09765625 C11.16234375 36.78765625 10.17234375 34.47765625 9.15234375 32.09765625 C4.20234375 31.76765625 -0.74765625 31.43765625 -5.84765625 31.09765625 C-6.34265625 33.57265625 -6.34265625 33.57265625 -6.84765625 36.09765625 C-7.17765625 37.08765625 -7.50765625 38.07765625 -7.84765625 39.09765625 C-11.14765625 39.09765625 -14.44765625 39.09765625 -17.84765625 39.09765625 C-14.41902201 29.71261038 -10.8083653 20.41240601 -7.03515625 11.16015625 C-6.43973022 9.69425049 -6.43973022 9.69425049 -5.83227539 8.19873047 C-5.45965576 7.29010254 -5.08703613 6.38147461 -4.703125 5.4453125 C-4.36949951 4.63070557 -4.03587402 3.81609863 -3.69213867 2.97680664 C-2.41165676 0.127466 -2.41165676 0.127466 0 0 Z " fill="#DA5820" transform="translate(164.84765625,40.90234375)"/>
<path d="M0 0 C2.05078125 0.03255208 4.1015625 0.06510417 6.15234375 0.09765625 C11.29297035 10.89555534 15.65470393 22.02137908 20.15234375 33.09765625 C20.48234375 22.20765625 20.81234375 11.31765625 21.15234375 0.09765625 C24.12234375 0.09765625 27.09234375 0.09765625 30.15234375 0.09765625 C30.15234375 12.96765625 30.15234375 25.83765625 30.15234375 39.09765625 C24.21234375 39.09765625 18.27234375 39.09765625 12.15234375 39.09765625 C11.16234375 36.78765625 10.17234375 34.47765625 9.15234375 32.09765625 C4.53234375 32.09765625 -0.08765625 32.09765625 -4.84765625 32.09765625 C-5.83765625 34.40765625 -6.82765625 36.71765625 -7.84765625 39.09765625 C-10.81765625 39.09765625 -13.78765625 39.09765625 -16.84765625 39.09765625 C-16.14463732 34.63585819 -14.60439549 30.59975564 -12.94140625 26.42578125 C-12.65664429 25.70275818 -12.37188232 24.97973511 -12.07849121 24.23480225 C-11.47865299 22.71449711 -10.87676586 21.19499895 -10.27294922 19.67626953 C-9.34600594 17.34350303 -8.42644047 15.00792679 -7.5078125 12.671875 C-6.92360964 11.19383937 -6.33898892 9.71596882 -5.75390625 8.23828125 C-5.47784546 7.53729309 -5.20178467 6.83630493 -4.9173584 6.11407471 C-2.53290375 0.13387441 -2.53290375 0.13387441 0 0 Z " fill="#DB5B24" transform="translate(414.84765625,40.90234375)"/>
<path d="M0 0 C2.97 0 5.94 0 9 0 C9.33 9.9 9.66 19.8 10 30 C12.64 30 15.28 30 18 30 C20.32452624 26.51321064 20.29773734 24.93032429 20.4140625 20.80078125 C20.45273437 19.59228516 20.49140625 18.38378906 20.53125 17.13867188 C20.5621875 15.87603516 20.593125 14.61339844 20.625 13.3125 C20.66367187 12.03826172 20.70234375 10.76402344 20.7421875 9.45117188 C20.83657686 6.30092708 20.9221583 3.15069009 21 0 C23.97 0 26.94 0 30 0 C30.07468157 4.00178342 30.12885021 8.00329167 30.16479492 12.00561523 C30.17979409 13.36441117 30.20020038 14.72315941 30.22631836 16.08178711 C30.4955761 30.4580388 30.4955761 30.4580388 27 36 C22.91013748 39.69197996 17.54973669 40.65588059 12.17578125 40.38671875 C7.58636765 39.5710061 4.19424828 37.5597032 1.32299805 33.80981445 C-0.34885799 30.25908718 -0.3413289 27.64764096 -0.29296875 23.73046875 C-0.28872391 23.04946609 -0.28447906 22.36846344 -0.28010559 21.66682434 C-0.2634061 19.50663541 -0.22577312 17.34740358 -0.1875 15.1875 C-0.17244174 13.71681042 -0.15875534 12.24610611 -0.14648438 10.77539062 C-0.11353214 7.18328643 -0.06181173 3.59173674 0 0 Z " fill="#DB5A24" transform="translate(279,41)"/>
<path d="M0 0 C19 0 19 0 24 3 C26.7020964 7.05314459 26.52827017 10.2455685 26 15 C24.16669816 19.58325461 21.38253554 21.80873223 17 24 C13.91326551 24.31775208 11.11716265 24.18891895 8 24 C8 28.62 8 33.24 8 38 C5.36 38 2.72 38 0 38 C0 25.46 0 12.92 0 0 Z " fill="#DA571F" transform="translate(251,42)"/>
<path d="M0 0 C7.26 0 14.52 0 22 0 C22 2.64 22 5.28 22 8 C17.71 8 13.42 8 9 8 C9 10.64 9 13.28 9 16 C12.96 16 16.92 16 21 16 C21 18.64 21 21.28 21 24 C17.04 24 13.08 24 9 24 C9 26.31 9 28.62 9 31 C13.29 31 17.58 31 22 31 C22 33.64 22 36.28 22 39 C14.74 39 7.48 39 0 39 C0 26.13 0 13.26 0 0 Z " fill="#DA5A23" transform="translate(366,41)"/>
<path d="M0 0 C3.625 1.5 3.625 1.5 6 3 C5.1875 5.9375 5.1875 5.9375 4 9 C0.90521121 10.03159626 -0.52631393 9.97482862 -3.6875 9.5625 C-4.49574219 9.46066406 -5.30398438 9.35882813 -6.13671875 9.25390625 C-6.75160156 9.17011719 -7.36648438 9.08632813 -8 9 C-8 10.32 -8 11.64 -8 13 C-7.25234375 13.38671875 -6.5046875 13.7734375 -5.734375 14.171875 C-4.74953125 14.69265625 -3.7646875 15.2134375 -2.75 15.75 C-1.77546875 16.26046875 -0.8009375 16.7709375 0.203125 17.296875 C2.98902506 18.99331694 4.97006003 20.44956261 7 23 C7.80285467 26.40521117 7.65036995 29.57027131 7 33 C4.01869685 36.97507087 0.67928902 39.6081312 -4.296875 40.3359375 C-10.21552182 40.43018347 -15.21020793 39.73928937 -20 36 C-20.495 34.515 -20.495 34.515 -21 33 C-19.5625 30.3125 -19.5625 30.3125 -18 28 C-15.83125748 28.50603992 -14.00032373 28.99983813 -12 30 C-10.45976004 30.06950541 -8.91665012 30.08452357 -7.375 30.0625 C-6.55773437 30.05347656 -5.74046875 30.04445313 -4.8984375 30.03515625 C-4.27195312 30.02355469 -3.64546875 30.01195313 -3 30 C-3 28.68 -3 27.36 -3 26 C-3.75925781 25.60167969 -4.51851563 25.20335938 -5.30078125 24.79296875 C-6.29464844 24.26316406 -7.28851563 23.73335937 -8.3125 23.1875 C-9.29863281 22.66542969 -10.28476562 22.14335938 -11.30078125 21.60546875 C-15.00621818 19.40151133 -16.62936929 18.11189213 -18 14 C-18.375 10.625 -18.375 10.625 -18 7 C-12.61542591 0.45119368 -8.15491597 -0.87238636 0 0 Z " fill="#DA5A23" transform="translate(356,41)"/>
<path d="M0 0 C0.78375 0.495 1.5675 0.99 2.375 1.5 C1.5625 4.4375 1.5625 4.4375 0.375 7.5 C-2.71978879 8.53159626 -4.15131393 8.47482862 -7.3125 8.0625 C-8.12074219 7.96066406 -8.92898437 7.85882813 -9.76171875 7.75390625 C-10.37660156 7.67011719 -10.99148437 7.58632813 -11.625 7.5 C-11.625 8.82 -11.625 10.14 -11.625 11.5 C-10.87734375 11.87511719 -10.1296875 12.25023437 -9.359375 12.63671875 C1.18225022 18.11450044 1.18225022 18.11450044 3.375 22.5 C4.11158705 27.65610937 4.04146696 29.44149365 1.25 33.875 C-3.23763392 37.97240488 -7.39136935 38.95326171 -13.45703125 38.8359375 C-17.49012225 38.21099007 -21.02940196 36.36438417 -24.625 34.5 C-24.625 30.92424104 -23.53659393 29.44704065 -21.625 26.5 C-20.8 26.83 -19.975 27.16 -19.125 27.5 C-15.0376017 28.66782809 -11.85576656 28.6458885 -7.625 28.5 C-7.625 27.18 -7.625 25.86 -7.625 24.5 C-9.70174529 22.86564164 -9.70174529 22.86564164 -12.375 21.5625 C-19.53074892 17.4981157 -19.53074892 17.4981157 -21.625 13.5 C-22.45108689 9.19380237 -22.16927066 6.39415894 -19.875 2.625 C-14.16506914 -2.76771248 -7.08432021 -2.93144284 0 0 Z " fill="#DA5922" transform="translate(209.625,42.5)"/>
<path d="M0 0 C3.125 0.25 3.125 0.25 5 1.4375 C6.53159584 3.90507108 6.55322025 5.39519831 6.125 8.25 C5.0625 10.0625 5.0625 10.0625 3.125 11.25 C-0.5625 11.4375 -0.5625 11.4375 -3.875 11.25 C-4.535 9.6 -5.195 7.95 -5.875 6.25 C-7.195 6.25 -8.515 6.25 -9.875 6.25 C-9.875 14.83 -9.875 23.41 -9.875 32.25 C-8.555 32.25 -7.235 32.25 -5.875 32.25 C-5.606875 31.46625 -5.33875 30.6825 -5.0625 29.875 C-3.875 27.25 -3.875 27.25 -0.875 25.25 C2.45966685 25.42864287 5.1110269 25.69395023 8.0625 27.3125 C9.81720303 30.51225258 9.751852 33.7494894 9.125 37.25 C7.5 39.75 7.5 39.75 5.125 41.25 C2.1875 41.8125 2.1875 41.8125 -0.875 41.25 C-3.75 38.875 -3.75 38.875 -5.875 36.25 C-5.875 35.59 -5.875 34.93 -5.875 34.25 C-7.855 34.25 -9.835 34.25 -11.875 34.25 C-11.875 29.63 -11.875 25.01 -11.875 20.25 C-16.165 20.25 -20.455 20.25 -24.875 20.25 C-24.875 21.9 -24.875 23.55 -24.875 25.25 C-23.225 25.25 -21.575 25.25 -19.875 25.25 C-19.875 29.21 -19.875 33.17 -19.875 37.25 C-28.37109375 37.34765625 -28.37109375 37.34765625 -30.875 37.25 C-31.875 36.25 -31.875 36.25 -31.97265625 33.74609375 C-31.96105469 32.73675781 -31.94945312 31.72742188 -31.9375 30.6875 C-31.92847656 29.67558594 -31.91945312 28.66367188 -31.91015625 27.62109375 C-31.89855469 26.83863281 -31.88695312 26.05617188 -31.875 25.25 C-29.895 25.25 -27.915 25.25 -25.875 25.25 C-25.875 21.62 -25.875 17.99 -25.875 14.25 C-27.525 14.25 -29.175 14.25 -30.875 14.25 C-30.875 11.61 -30.875 8.97 -30.875 6.25 C-27.575 6.25 -24.275 6.25 -20.875 6.25 C-20.875 8.89 -20.875 11.53 -20.875 14.25 C-22.195 14.25 -23.515 14.25 -24.875 14.25 C-24.875 15.57 -24.875 16.89 -24.875 18.25 C-20.585 18.25 -16.295 18.25 -11.875 18.25 C-11.875 13.96 -11.875 9.67 -11.875 5.25 C-9.895 5.25 -7.915 5.25 -5.875 5.25 C-5.565625 4.610625 -5.25625 3.97125 -4.9375 3.3125 C-3.38258621 0.29413793 -3.38258621 0.29413793 0 0 Z " fill="#EEDACC" transform="translate(95.875,43.75)"/>
<path d="M0 0 C8.91 0 17.82 0 27 0 C27 2.64 27 5.28 27 8 C24.03 8 21.06 8 18 8 C18 18.23 18 28.46 18 39 C15.03 39 12.06 39 9 39 C9 28.77 9 18.54 9 8 C6.03 8 3.06 8 0 8 C0 5.36 0 2.72 0 0 Z " fill="#DB5A23" transform="translate(123,41)"/>
<path d="M0 0 C2.97 0 5.94 0 9 0 C9 10.23 9 20.46 9 31 C13.29 31 17.58 31 22 31 C22 33.64 22 36.28 22 39 C14.74 39 7.48 39 0 39 C0 26.13 0 13.26 0 0 Z " fill="#DA5821" transform="translate(312,41)"/>
<path d="M0 0 C3.625 0.25 3.625 0.25 5.5625 1.625 C6.625 3.25 6.625 3.25 6.625 5.25 C7.38167969 5.31316406 8.13835937 5.37632813 8.91796875 5.44140625 C12.51396109 6.51553383 13.14306852 7.95566863 14.9375 11.1875 C15.44925781 12.08339844 15.96101563 12.97929687 16.48828125 13.90234375 C17.625 16.25 17.625 16.25 17.625 18.25 C6.405 18.25 -4.815 18.25 -16.375 18.25 C-14.07418699 11.34756098 -14.07418699 11.34756098 -12 8.375 C-11.60039063 7.77945312 -11.20078125 7.18390625 -10.7890625 6.5703125 C-9.375 5.25 -9.375 5.25 -5.375 5.25 C-5.230625 4.610625 -5.08625 3.97125 -4.9375 3.3125 C-4.01094206 -0.0848791 -3.7520673 0.27793091 0 0 Z " fill="#DA5820" transform="translate(84.375,18.75)"/>
<path d="M0 0 C2.64 0 5.28 0 8 0 C8 12.54 8 25.08 8 38 C5.36 38 2.72 38 0 38 C0 25.46 0 12.92 0 0 Z " fill="#DA541B" transform="translate(437,42)"/>
<path d="M0 0 C2.15502531 3.23253796 2.46856135 4.25150923 2 8 C0.9375 9.8125 0.9375 9.8125 -1 11 C-4.5625 11.3125 -4.5625 11.3125 -8 11 C-10 9 -10 9 -10.3125 5.5625 C-10 2 -10 2 -8.9375 0 C-5.77203476 -1.63378851 -3.34979714 -0.85267564 0 0 Z " fill="#DA561E" transform="translate(102,72)"/>
<path d="M0 0 C0.33 0 0.66 0 1 0 C1 6.93 1 13.86 1 21 C2.32 21 3.64 21 5 21 C5.268125 20.21625 5.53625 19.4325 5.8125 18.625 C7 16 7 16 10 14 C13.33466685 14.17864287 15.9860269 14.44395023 18.9375 16.0625 C20.69220303 19.26225258 20.626852 22.4994894 20 26 C18.375 28.5 18.375 28.5 16 30 C13.0625 30.5625 13.0625 30.5625 10 30 C7.125 27.625 7.125 27.625 5 25 C5 24.34 5 23.68 5 23 C3.02 23 1.04 23 -1 23 C-1.09928082 15.24506486 -1.06059488 7.68931285 0 0 Z M8.1875 17.0625 C6.353079 20.05550269 6.68892424 22.57816663 7 26 C8.93731528 28.36410488 8.93731528 28.36410488 12.4375 28.3125 C15.84964418 28.24664745 15.84964418 28.24664745 18 26.9375 C19.63378851 23.77203476 18.85267564 21.34979714 18 18 C14.48232788 15.65488525 11.98908309 14.83398578 8.1875 17.0625 Z " fill="#EBC8B4" transform="translate(85,55)"/>
<path d="M0 0 C3.3 0 6.6 0 10 0 C10 2.64 10 5.28 10 8 C8.68 8 7.36 8 6 8 C6 9.32 6 10.64 6 12 C10.29 12 14.58 12 19 12 C19 12.33 19 12.66 19 13 C14.38 13 9.76 13 5 13 C5 11.35 5 9.7 5 8 C3.35 8 1.7 8 0 8 C0 5.36 0 2.72 0 0 Z " fill="#ECD1C0" transform="translate(65,50)"/>
<path d="M0 0 C2.97 0 5.94 0 9 0 C9 2.97 9 5.94 9 9 C6.03 9 3.06 9 0 9 C0 6.03 0 3.06 0 0 Z " fill="#DA5A23" transform="translate(66,70)"/>
<path d="M0 0 C3.375 -0.125 3.375 -0.125 7 0 C9 2 9 2 9.375 4.4375 C9 7 9 7 7.3125 8.8125 C5 10 5 10 0 10 C0 6.7 0 3.4 0 0 Z " fill="#EFE8DE" transform="translate(259,49)"/>
<path d="M0 0 C4.55555556 0.55555556 4.55555556 0.55555556 6 2 C6.1875 4.4375 6.1875 4.4375 6 7 C5.34 7.66 4.68 8.32 4 9 C0.875 8.625 0.875 8.625 -2 8 C-2.125 5.125 -2.125 5.125 -2 2 C-1.34 1.34 -0.68 0.68 0 0 Z " fill="#DA561E" transform="translate(94,45)"/>
<path d="M0 0 C0.66 0 1.32 0 2 0 C2.50615298 1.26839526 3.00469099 2.53983102 3.5 3.8125 C3.91765625 4.87404297 3.91765625 4.87404297 4.34375 5.95703125 C5 8 5 8 5 11 C2.36 11 -0.28 11 -3 11 C-2.32829194 7.1936543 -1.27253436 3.64793184 0 0 Z " fill="#EDD9CB" transform="translate(416,54)"/>
<path d="M0 0 C2 1 2 1 2.8515625 3.28515625 C3.10679687 4.20167969 3.36203125 5.11820313 3.625 6.0625 C3.88539063 6.98160156 4.14578125 7.90070312 4.4140625 8.84765625 C4.60742188 9.55792969 4.80078125 10.26820312 5 11 C2.36 11 -0.28 11 -3 11 C-2.69078116 9.54096742 -2.37751201 8.08279278 -2.0625 6.625 C-1.88847656 5.81289063 -1.71445313 5.00078125 -1.53515625 4.1640625 C-1 2 -1 2 0 0 Z " fill="#EEDBCC" transform="translate(166,54)"/>
<path d="M0 0 C2 2 2 2 2.1953125 3.9453125 C2.13020833 5.96354167 2.06510417 7.98177083 2 10 C4.97 10 7.94 10 11 10 C11.33 10.66 11.66 11.32 12 12 C10.18757948 12.02687279 8.37504767 12.04633715 6.5625 12.0625 C5.55316406 12.07410156 4.54382813 12.08570312 3.50390625 12.09765625 C1 12 1 12 0 11 C-0.07226502 9.14712498 -0.0838122 7.29166122 -0.0625 5.4375 C-0.05347656 4.42558594 -0.04445312 3.41367188 -0.03515625 2.37109375 C-0.02355469 1.58863281 -0.01195312 0.80617188 0 0 Z " fill="#E9B9A1" transform="translate(64,69)"/>
<path d="M0 0 C0.33 0 0.66 0 1 0 C1 8.25 1 16.5 1 25 C0.67 25 0.34 25 0 25 C-0.144375 23.906875 -0.28875 22.81375 -0.4375 21.6875 C-0.88288104 18.06877013 -0.88288104 18.06877013 -2 15 C-1.75367118 12.40930029 -1.44871022 9.88163753 -1.0625 7.3125 C-0.96259766 6.61060547 -0.86269531 5.90871094 -0.75976562 5.18554688 C-0.51270675 3.45613473 -0.25717148 1.7279373 0 0 Z " fill="#EDD3C2" transform="translate(278,42)"/>
<path d="M0 0 C2.31 0 4.62 0 7 0 C7 1.65 7 3.3 7 5 C4.69 5 2.38 5 0 5 C0 3.35 0 1.7 0 0 Z " fill="#DA541B" transform="translate(67,51)"/>
<path d="M0 0 C0.99 0.495 0.99 0.495 2 1 C2 2.65 2 4.3 2 6 C4.31 6 6.62 6 9 6 C9 6.33 9 6.66 9 7 C4.545 7.495 4.545 7.495 0 8 C0 5.36 0 2.72 0 0 Z " fill="#EAC0AA" transform="translate(65,50)"/>
</svg>
