<svg xmlns="http://www.w3.org/2000/svg" width="512" height="512" viewBox="0 0 512 512" version="1.1">
	<path d="M 246.734 1.029 C 234.433 4.119, 223.395 14.273, 219.461 26.118 L 217.839 31 208.530 31 C 201.089 31, 198.823 31.351, 197.233 32.750 C 196.139 33.712, 186.414 49.172, 175.622 67.105 C 154.612 102.017, 153.568 104.489, 158.105 108.595 C 160.144 110.440, 163.207 110.500, 256.077 110.500 L 351.944 110.500 354.139 108.306 C 355.391 107.054, 356.333 104.864, 356.333 103.206 C 356.333 101.199, 350.189 90.144, 336.456 67.440 C 325.524 49.366, 315.774 33.774, 314.789 32.789 C 313.325 31.325, 311.299 31, 303.636 31 L 294.272 31 292.472 26.250 C 288.433 15.584, 279.879 6.627, 270.202 2.928 C 263.809 0.485, 252.535 -0.427, 246.734 1.029 M 246.571 30.571 C 244.670 32.473, 244.629 33.111, 246.268 35.351 C 247.338 36.815, 248.933 37.039, 256.518 36.792 C 265.035 36.515, 265.517 36.381, 265.827 34.195 C 266.415 30.045, 264.429 29, 255.949 29 C 250.186 29, 247.732 29.411, 246.571 30.571 M 110.746 61.086 C 101.324 63.306, 91.517 70.371, 86.152 78.803 C 79.539 89.195, 79.953 74.527, 80.240 288.040 L 80.500 481.500 83.626 488 C 87.586 496.235, 92.312 501.622, 99.211 505.765 C 109.891 512.179, 104.463 511.963, 255.566 511.983 C 350.622 511.995, 394.451 511.665, 398.566 510.906 C 411.677 508.487, 422.720 500.029, 428.391 488.062 L 431.500 481.500 431.760 287.748 L 432.020 93.996 429.943 87.831 C 425.342 74.174, 415.628 65.133, 401.500 61.359 C 394.530 59.498, 341.547 59.400, 342.284 61.250 C 342.558 61.938, 347.557 70.353, 353.391 79.952 C 363.237 96.149, 364 97.774, 364 102.554 C 364 108.246, 361.623 112.743, 356.677 116.408 C 353.865 118.492, 353.482 118.501, 258.339 118.765 C 195.188 118.940, 161.530 118.681, 159.003 118.001 C 154.329 116.742, 149.474 111.474, 148.023 106.084 C 146.526 100.527, 147.824 97.412, 159.802 77.814 C 165.411 68.637, 170 60.874, 170 60.564 C 170 59.639, 114.821 60.125, 110.746 61.086 M 307.302 150.045 C 297.431 153.949, 288.480 164.095, 285.947 174.250 L 284.763 179 270.316 179 C 262.269 179, 255.012 179.459, 253.934 180.035 C 252.074 181.031, 252 182.527, 252 219.335 C 252 247.763, 251.692 257.908, 250.800 258.800 C 249.909 259.691, 239.867 260, 211.800 260 L 174 260 174 246 L 174 232 185.800 232 C 193.644 232, 198.002 231.598, 198.800 230.800 C 200.500 229.100, 200.500 186.900, 198.800 185.200 C 197.923 184.323, 189.986 184, 169.335 184 C 142.414 184, 141.021 184.092, 140.035 185.934 C 138.470 188.858, 138.661 228.164, 140.250 230.288 C 141.274 231.658, 143.666 232.008, 153.500 232.230 L 165.500 232.500 165.500 264.500 L 165.500 296.500 150.500 297 L 135.500 297.500 135.236 330.881 C 135.048 354.683, 135.299 364.655, 136.109 365.631 C 137.027 366.738, 143.429 367, 169.551 367 C 197.587 367, 202.065 366.792, 203.429 365.429 C 204.792 364.065, 205 359.594, 205 331.629 C 205 307.895, 204.684 299.084, 203.800 298.200 C 202.979 297.379, 198.089 297, 188.300 297 L 174 297 174 282.488 L 174 267.977 212.750 268.238 L 251.500 268.500 251.762 307.912 C 251.941 334.974, 252.372 347.743, 253.134 348.662 C 253.973 349.672, 257.976 350, 269.484 350 L 284.724 350 285.844 355.576 C 290.237 377.454, 311.778 393.452, 334.500 391.712 C 368.382 389.119, 387.988 351.251, 370.712 321.772 C 364.376 310.960, 350.859 302.086, 337.533 299.989 C 314.087 296.299, 290.657 312.675, 285.811 336.139 L 284.600 342 274.234 342 C 268.533 342, 262.998 341.534, 261.934 340.965 C 260.048 339.955, 260 338.053, 260 264.665 C 260 207.459, 260.288 189.112, 261.200 188.200 C 261.990 187.410, 266.220 187, 273.589 187 L 284.777 187 285.473 190.750 C 285.856 192.813, 287.548 197.096, 289.233 200.268 C 302.873 225.940, 339.825 224.621, 352.748 198 C 355.021 193.318, 355.424 191.162, 355.459 183.500 C 355.494 175.792, 355.118 173.685, 352.840 168.825 C 349.299 161.272, 343.353 155.012, 336.361 151.474 C 328.606 147.550, 315.267 146.895, 307.302 150.045 M 310.463 157.591 C 300.450 161.146, 293.948 170.125, 293.225 181.396 C 292.633 190.627, 295.186 197.030, 302.002 203.405 C 313.288 213.962, 330.673 212.995, 341.025 201.234 C 347.440 193.946, 349.361 184.946, 346.533 175.424 C 343.074 163.776, 332.544 155.924, 320.590 156.079 C 317.241 156.122, 312.683 156.803, 310.463 157.591 M 149.250 192.662 C 148.329 193.034, 148 197.064, 148 207.976 C 148 220.558, 148.238 222.877, 149.582 223.393 C 150.452 223.727, 159.886 224, 170.547 224 C 188.687 224, 189.996 223.876, 190.965 222.066 C 191.534 221.002, 192 214.672, 192 208 C 192 201.328, 191.534 194.998, 190.965 193.934 C 189.993 192.118, 188.727 192.005, 170.215 192.079 C 159.372 192.122, 149.938 192.385, 149.250 192.662 M 142.925 307.697 C 142.298 309.347, 142.016 319.446, 142.200 333.734 C 142.450 353.166, 142.751 357.234, 144 358.022 C 144.838 358.551, 156.415 358.976, 170.215 358.985 C 193.635 358.999, 194.984 358.899, 195.965 357.066 C 197.506 354.187, 197.355 307.755, 195.800 306.200 C 194.930 305.330, 187.639 305, 169.275 305 L 143.950 305 142.925 307.697 M 325.357 308.079 C 313.445 309.646, 302.045 318.096, 296.440 329.513 C 293.781 334.928, 293.500 336.457, 293.500 345.521 C 293.500 354.821, 293.736 356.021, 296.774 362.193 C 311.077 391.247, 352.298 390.618, 365.794 361.140 C 369.204 353.690, 369.963 342.267, 367.545 334.785 C 361.576 316.320, 344.565 305.552, 325.357 308.079 M 146.386 425.437 C 146.081 426.232, 145.988 427.697, 146.179 428.692 C 146.513 430.423, 151.189 430.500, 256.014 430.500 L 365.500 430.500 365.500 427.500 L 365.500 424.500 256.220 424.246 C 161.656 424.025, 146.866 424.186, 146.386 425.437 M 147.204 468.196 C 145.604 469.796, 145.677 472.487, 147.358 473.882 C 148.351 474.706, 177.684 474.941, 256.499 474.755 C 357.902 474.515, 364.347 474.396, 365.386 472.750 C 366.191 471.474, 366.191 470.526, 365.386 469.250 C 364.347 467.604, 357.895 467.485, 256.345 467.246 C 173.223 467.050, 148.132 467.268, 147.204 468.196" stroke="none" fill="#da541b" fill-rule="evenodd"/>
</svg>